<svg width="29" height="36" viewBox="0 0 29 36" fill="none" xmlns="http://www.w3.org/2000/svg">
<g clip-path="url(#clip0_43_348)">
<g filter="url(#filter0_d_43_348)">
<path d="M24.5 11.25V13.5M15.5 3.37503H15.9421C14.4969 4.71795 13.5679 6.52485 13.3167 8.48165C13.0655 10.4385 13.5079 12.4214 14.5671 14.0858C15.6262 15.7503 17.2352 16.9909 19.1142 17.5922C20.9932 18.1934 23.0235 18.1172 24.8521 17.3768C24.1487 19.0693 22.999 20.5392 21.5257 21.6296C20.0524 22.7199 18.3107 23.3899 16.4865 23.5681C14.6623 23.7462 12.8239 23.4258 11.1675 22.6411C9.51108 21.8564 8.09875 20.6367 7.08116 19.1122C6.06357 17.5877 5.47889 15.8156 5.38949 13.9849C5.3001 12.1541 5.70933 10.3335 6.57354 8.71711C7.43775 7.10073 8.72453 5.74925 10.2966 4.80685C11.8687 3.86445 13.6671 3.36647 15.5 3.36603V3.37503ZM21.125 4.50003C21.125 5.09676 21.3621 5.66906 21.784 6.09102C22.206 6.51297 22.7783 6.75003 23.375 6.75003C22.7783 6.75003 22.206 6.98708 21.784 7.40904C21.3621 7.83099 21.125 8.40329 21.125 9.00003C21.125 8.40329 20.8879 7.83099 20.466 7.40904C20.044 6.98708 19.4717 6.75003 18.875 6.75003C19.4717 6.75003 20.044 6.51297 20.466 6.09102C20.8879 5.66906 21.125 5.09676 21.125 4.50003ZM23.375 12.375H25.625H23.375Z" stroke="url(#paint0_linear_43_348)" stroke-width="2" stroke-linecap="round" stroke-linejoin="round" shape-rendering="crispEdges"/>
</g>
</g>
<path d="M3.96574 31.26V30.919H2.65124V30.3965H4.55974V31.227C4.55974 31.4855 4.54324 31.799 4.49374 32.041H3.89974C3.93824 31.81 3.96574 31.5075 3.96574 31.26ZM1.79324 31.161V30.919H0.654744V30.3965H2.37624V31.084C2.37624 31.392 2.33224 31.766 2.26624 32.041H1.68324C1.74374 31.777 1.79324 31.4305 1.79324 31.161ZM0.390744 32.8385V32.3215H4.88424V32.8385H2.93724V33.537H4.55974V35.374H0.720744V33.537H2.33774V32.8385H0.390744ZM3.96024 34.8735V34.043H1.31474V34.8735H3.96024ZM9.39962 32.6955C9.39962 31.9035 9.34462 31.326 9.13562 31.062C9.03662 30.9245 8.88262 30.853 8.70112 30.853C8.52512 30.853 8.37112 30.9245 8.26662 31.062C8.06862 31.326 8.00812 31.9035 8.00812 32.6955C8.00812 33.4875 8.06862 34.065 8.26662 34.3345C8.37112 34.461 8.52512 34.5325 8.70112 34.5325C8.88262 34.5325 9.03662 34.461 9.13562 34.3345C9.34462 34.065 9.39962 33.4875 9.39962 32.6955ZM7.41412 32.6955C7.41412 31.7935 7.50212 31.117 7.82112 30.7265C8.02462 30.4735 8.33262 30.336 8.70112 30.336C9.07512 30.336 9.37762 30.4735 9.58662 30.7265C9.73512 30.9025 9.82862 31.1445 9.89462 31.436H10.8571V30.336H11.4566V35.3245H10.8571V33.834H9.91662C9.85612 34.1805 9.75162 34.461 9.58662 34.6645C9.37762 34.9175 9.07512 35.044 8.70112 35.044C8.33262 35.044 8.02462 34.9175 7.82112 34.6645C7.50212 34.274 7.41412 33.5975 7.41412 32.6955ZM9.96612 31.9585C9.98812 32.184 9.99362 32.4315 9.99362 32.6955C9.99362 32.9155 9.98812 33.1245 9.97712 33.317H10.8571V31.9585H9.96612ZM14.8224 31.1555H12.5949V30.6715H13.4309V30.193H14.0194V30.6715H14.8224V31.1555ZM13.2384 32.349C13.2384 32.503 13.3044 32.635 13.4034 32.7175C13.4859 32.7835 13.6014 32.822 13.7169 32.822C13.8379 32.822 13.9424 32.7835 14.0249 32.7175C14.1294 32.635 14.1954 32.4975 14.1954 32.349C14.1954 32.195 14.1294 32.0685 14.0249 31.986C13.9424 31.92 13.8379 31.887 13.7169 31.887C13.5959 31.887 13.4804 31.9255 13.3979 31.997C13.2989 32.0795 13.2384 32.2005 13.2384 32.349ZM12.6884 32.349C12.6884 32.0575 12.8039 31.8045 13.0184 31.6395C13.1944 31.4965 13.4364 31.414 13.7169 31.414C13.9864 31.414 14.2229 31.491 14.3989 31.6285C14.6189 31.7935 14.7454 32.0465 14.7454 32.349C14.7454 32.6735 14.6079 32.9375 14.3659 33.1025C14.1954 33.2235 13.9699 33.284 13.7169 33.284C13.4584 33.284 13.2329 33.218 13.0624 33.097C12.8314 32.932 12.6884 32.6735 12.6884 32.349ZM16.8189 33.372H16.2414V32.085H15.6914V33.284H15.1249V30.369H15.6914V31.5625H16.2414V30.336H16.8189V33.372ZM12.9524 34.505C12.9524 34.2025 13.1009 33.9935 13.3594 33.845C13.7169 33.6415 14.2834 33.5645 14.9379 33.5645C15.5869 33.5645 16.1589 33.6415 16.5164 33.845C16.7694 33.9935 16.9179 34.2025 16.9179 34.505C16.9179 34.802 16.7694 35.0165 16.5164 35.165C16.1589 35.3685 15.5869 35.44 14.9379 35.44C14.2834 35.44 13.7169 35.3685 13.3594 35.165C13.1009 35.0165 12.9524 34.802 12.9524 34.505ZM13.5464 34.505C13.5464 34.6095 13.6124 34.692 13.7279 34.758C13.9589 34.8845 14.3934 34.9395 14.9379 34.9395C15.4824 34.9395 15.9169 34.8845 16.1424 34.758C16.2579 34.692 16.3239 34.6095 16.3239 34.505C16.3239 34.4005 16.2579 34.318 16.1424 34.2465C15.9169 34.12 15.4824 34.0705 14.9379 34.0705C14.3934 34.0705 13.9589 34.12 13.7279 34.2465C13.6124 34.318 13.5464 34.4005 13.5464 34.505ZM18.9087 30.908V30.193H19.5082V30.908H20.6357V31.425H17.7922V30.908H18.9087ZM18.5897 33.449C18.5897 33.922 18.6667 34.2575 18.8537 34.4335C18.9527 34.5215 19.0792 34.571 19.2332 34.571C19.3817 34.571 19.4972 34.5215 19.5907 34.439C19.7887 34.263 19.8767 33.922 19.8767 33.449C19.8767 32.9375 19.7722 32.5965 19.5687 32.4315C19.4807 32.36 19.3707 32.327 19.2332 32.327C19.0792 32.327 18.9582 32.3655 18.8647 32.4535C18.6722 32.6295 18.5897 32.9595 18.5897 33.449ZM17.9957 33.449C17.9957 32.7835 18.1662 32.294 18.5127 32.0245C18.7052 31.887 18.9417 31.81 19.2332 31.81C19.4862 31.81 19.7062 31.865 19.8822 31.986C20.2672 32.239 20.4707 32.7505 20.4707 33.449C20.4707 34.1475 20.2727 34.648 19.8987 34.901C19.7172 35.022 19.4972 35.0825 19.2332 35.0825C18.9527 35.0825 18.7162 35.011 18.5292 34.8735C18.1717 34.615 17.9957 34.1255 17.9957 33.449ZM21.8952 30.336V32.371H22.6762V32.8935H21.8952V35.3245H21.2957V30.336H21.8952ZM25.118 31.502V30.952H23.314V30.424H25.7065V31.4305C25.7065 33.328 25.0025 34.593 23.281 35.033V34.4665C24.546 34.098 25.118 33.0585 25.118 31.502ZM27.296 30.336V35.3245H26.6965V30.336H27.296Z" fill="#665AA6"/>
<defs>
<filter id="filter0_d_43_348" x="2.37744" y="2.36603" width="26.2476" height="26.2501" filterUnits="userSpaceOnUse" color-interpolation-filters="sRGB">
<feFlood flood-opacity="0" result="BackgroundImageFix"/>
<feColorMatrix in="SourceAlpha" type="matrix" values="0 0 0 0 0 0 0 0 0 0 0 0 0 0 0 0 0 0 127 0" result="hardAlpha"/>
<feOffset dy="2"/>
<feGaussianBlur stdDeviation="1"/>
<feComposite in2="hardAlpha" operator="out"/>
<feColorMatrix type="matrix" values="0 0 0 0 0 0 0 0 0 0 0 0 0 0 0 0 0 0 0.25 0"/>
<feBlend mode="normal" in2="BackgroundImageFix" result="effect1_dropShadow_43_348"/>
<feBlend mode="normal" in="SourceGraphic" in2="effect1_dropShadow_43_348" result="shape"/>
</filter>
<linearGradient id="paint0_linear_43_348" x1="15.5012" y1="3.36603" x2="15.5012" y2="23.616" gradientUnits="userSpaceOnUse">
<stop stop-color="#D4A6B4"/>
<stop offset="0.508333" stop-color="#9C8CCA"/>
<stop offset="1" stop-color="#665AA6"/>
</linearGradient>
<clipPath id="clip0_43_348">
<rect width="27" height="27" fill="white" transform="translate(2)"/>
</clipPath>
</defs>
</svg>
