<svg width="28" height="33" viewBox="0 0 28 33" fill="none" xmlns="http://www.w3.org/2000/svg">
<path d="M23.5 11.25V13.5M14.5 3.37503H14.9421C13.4969 4.71795 12.5679 6.52485 12.3167 8.48165C12.0655 10.4385 12.5079 12.4214 13.5671 14.0858C14.6262 15.7503 16.2352 16.9909 18.1142 17.5922C19.9932 18.1934 22.0235 18.1172 23.8521 17.3768C23.1487 19.0693 21.999 20.5392 20.5257 21.6296C19.0524 22.7199 17.3107 23.3899 15.4865 23.5681C13.6623 23.7462 11.8239 23.4258 10.1675 22.6411C8.51108 21.8564 7.09875 20.6367 6.08116 19.1122C5.06357 17.5877 4.47889 15.8156 4.38949 13.9849C4.3001 12.1541 4.70933 10.3335 5.57354 8.71711C6.43775 7.10073 7.72453 5.74925 9.29661 4.80685C10.8687 3.86445 12.6671 3.36647 14.5 3.36603V3.37503ZM20.125 4.50003C20.125 5.09676 20.3621 5.66906 20.784 6.09102C21.206 6.51297 21.7783 6.75003 22.375 6.75003C21.7783 6.75003 21.206 6.98708 20.784 7.40904C20.3621 7.83099 20.125 8.40329 20.125 9.00003C20.125 8.40329 19.8879 7.83099 19.466 7.40904C19.044 6.98708 18.4717 6.75003 17.875 6.75003C18.4717 6.75003 19.044 6.51297 19.466 6.09102C19.8879 5.66906 20.125 5.09676 20.125 4.50003ZM22.375 12.375H24.625H22.375Z" stroke="#858585" stroke-width="2" stroke-linecap="round" stroke-linejoin="round"/>
<path d="M3.96574 28.26V27.919H2.65124V27.3965H4.55974V28.227C4.55974 28.4855 4.54324 28.799 4.49374 29.041H3.89974C3.93824 28.81 3.96574 28.5075 3.96574 28.26ZM1.79324 28.161V27.919H0.654744V27.3965H2.37624V28.084C2.37624 28.392 2.33224 28.766 2.26624 29.041H1.68324C1.74374 28.777 1.79324 28.4305 1.79324 28.161ZM0.390744 29.8385V29.3215H4.88424V29.8385H2.93724V30.537H4.55974V32.374H0.720744V30.537H2.33774V29.8385H0.390744ZM3.96024 31.8735V31.043H1.31474V31.8735H3.96024ZM9.39962 29.6955C9.39962 28.9035 9.34462 28.326 9.13562 28.062C9.03662 27.9245 8.88262 27.853 8.70112 27.853C8.52512 27.853 8.37112 27.9245 8.26662 28.062C8.06862 28.326 8.00812 28.9035 8.00812 29.6955C8.00812 30.4875 8.06862 31.065 8.26662 31.3345C8.37112 31.461 8.52512 31.5325 8.70112 31.5325C8.88262 31.5325 9.03662 31.461 9.13562 31.3345C9.34462 31.065 9.39962 30.4875 9.39962 29.6955ZM7.41412 29.6955C7.41412 28.7935 7.50212 28.117 7.82112 27.7265C8.02462 27.4735 8.33262 27.336 8.70112 27.336C9.07512 27.336 9.37762 27.4735 9.58662 27.7265C9.73512 27.9025 9.82862 28.1445 9.89462 28.436H10.8571V27.336H11.4566V32.3245H10.8571V30.834H9.91662C9.85612 31.1805 9.75162 31.461 9.58662 31.6645C9.37762 31.9175 9.07512 32.044 8.70112 32.044C8.33262 32.044 8.02462 31.9175 7.82112 31.6645C7.50212 31.274 7.41412 30.5975 7.41412 29.6955ZM9.96612 28.9585C9.98812 29.184 9.99362 29.4315 9.99362 29.6955C9.99362 29.9155 9.98812 30.1245 9.97712 30.317H10.8571V28.9585H9.96612ZM14.8224 28.1555H12.5949V27.6715H13.4309V27.193H14.0194V27.6715H14.8224V28.1555ZM13.2384 29.349C13.2384 29.503 13.3044 29.635 13.4034 29.7175C13.4859 29.7835 13.6014 29.822 13.7169 29.822C13.8379 29.822 13.9424 29.7835 14.0249 29.7175C14.1294 29.635 14.1954 29.4975 14.1954 29.349C14.1954 29.195 14.1294 29.0685 14.0249 28.986C13.9424 28.92 13.8379 28.887 13.7169 28.887C13.5959 28.887 13.4804 28.9255 13.3979 28.997C13.2989 29.0795 13.2384 29.2005 13.2384 29.349ZM12.6884 29.349C12.6884 29.0575 12.8039 28.8045 13.0184 28.6395C13.1944 28.4965 13.4364 28.414 13.7169 28.414C13.9864 28.414 14.2229 28.491 14.3989 28.6285C14.6189 28.7935 14.7454 29.0465 14.7454 29.349C14.7454 29.6735 14.6079 29.9375 14.3659 30.1025C14.1954 30.2235 13.9699 30.284 13.7169 30.284C13.4584 30.284 13.2329 30.218 13.0624 30.097C12.8314 29.932 12.6884 29.6735 12.6884 29.349ZM16.8189 30.372H16.2414V29.085H15.6914V30.284H15.1249V27.369H15.6914V28.5625H16.2414V27.336H16.8189V30.372ZM12.9524 31.505C12.9524 31.2025 13.1009 30.9935 13.3594 30.845C13.7169 30.6415 14.2834 30.5645 14.9379 30.5645C15.5869 30.5645 16.1589 30.6415 16.5164 30.845C16.7694 30.9935 16.9179 31.2025 16.9179 31.505C16.9179 31.802 16.7694 32.0165 16.5164 32.165C16.1589 32.3685 15.5869 32.44 14.9379 32.44C14.2834 32.44 13.7169 32.3685 13.3594 32.165C13.1009 32.0165 12.9524 31.802 12.9524 31.505ZM13.5464 31.505C13.5464 31.6095 13.6124 31.692 13.7279 31.758C13.9589 31.8845 14.3934 31.9395 14.9379 31.9395C15.4824 31.9395 15.9169 31.8845 16.1424 31.758C16.2579 31.692 16.3239 31.6095 16.3239 31.505C16.3239 31.4005 16.2579 31.318 16.1424 31.2465C15.9169 31.12 15.4824 31.0705 14.9379 31.0705C14.3934 31.0705 13.9589 31.12 13.7279 31.2465C13.6124 31.318 13.5464 31.4005 13.5464 31.505ZM18.9087 27.908V27.193H19.5082V27.908H20.6357V28.425H17.7922V27.908H18.9087ZM18.5897 30.449C18.5897 30.922 18.6667 31.2575 18.8537 31.4335C18.9527 31.5215 19.0792 31.571 19.2332 31.571C19.3817 31.571 19.4972 31.5215 19.5907 31.439C19.7887 31.263 19.8767 30.922 19.8767 30.449C19.8767 29.9375 19.7722 29.5965 19.5687 29.4315C19.4807 29.36 19.3707 29.327 19.2332 29.327C19.0792 29.327 18.9582 29.3655 18.8647 29.4535C18.6722 29.6295 18.5897 29.9595 18.5897 30.449ZM17.9957 30.449C17.9957 29.7835 18.1662 29.294 18.5127 29.0245C18.7052 28.887 18.9417 28.81 19.2332 28.81C19.4862 28.81 19.7062 28.865 19.8822 28.986C20.2672 29.239 20.4707 29.7505 20.4707 30.449C20.4707 31.1475 20.2727 31.648 19.8987 31.901C19.7172 32.022 19.4972 32.0825 19.2332 32.0825C18.9527 32.0825 18.7162 32.011 18.5292 31.8735C18.1717 31.615 17.9957 31.1255 17.9957 30.449ZM21.8952 27.336V29.371H22.6762V29.8935H21.8952V32.3245H21.2957V27.336H21.8952ZM25.118 28.502V27.952H23.314V27.424H25.7065V28.4305C25.7065 30.328 25.0025 31.593 23.281 32.033V31.4665C24.546 31.098 25.118 30.0585 25.118 28.502ZM27.296 27.336V32.3245H26.6965V27.336H27.296Z" fill="#858585"/>
</svg>
