<svg width="27" height="37" viewBox="0 0 27 37" fill="none" xmlns="http://www.w3.org/2000/svg">
<g clip-path="url(#clip0_43_343)">
<g filter="url(#filter0_d_43_343)">
<path d="M11.8716 3.00968C12.3276 2.62643 12.9043 2.41632 13.5 2.41632C14.0957 2.41632 14.6724 2.62643 15.1284 3.00968L22.7222 9.39518C23.0049 9.63271 23.2321 9.92919 23.3881 10.2638C23.544 10.5985 23.6249 10.9632 23.625 11.3324V21.9384C23.625 22.3859 23.4472 22.8151 23.1307 23.1316C22.8143 23.4481 22.3851 23.6259 21.9375 23.6259H17.2969C16.8493 23.6259 16.4201 23.4481 16.1036 23.1316C15.7872 22.8151 15.6094 22.3859 15.6094 21.9384V16.0321H11.3906V21.9384C11.3906 22.3859 11.2128 22.8151 10.8964 23.1316C10.5799 23.4481 10.1507 23.6259 9.70312 23.6259H5.0625C4.61495 23.6259 4.18572 23.4481 3.86926 23.1316C3.55279 22.8151 3.375 22.3859 3.375 21.9384V11.3316C3.37509 10.9624 3.45595 10.5977 3.61191 10.263C3.76787 9.92835 3.99515 9.63186 4.27781 9.39434L11.8716 3.00968Z" fill="url(#paint0_linear_43_343)"/>
</g>
</g>
<path d="M10.6732 31.424V33.316H11.2562V31.369H11.8392V36.264H11.2562V33.8385H10.6732V35.989H8.78121V31.424H10.6732ZM9.35871 35.483H10.0957V31.9355H9.35871V35.483ZM12.8732 36.3245H12.2902V31.336H12.8732V36.3245ZM13.9895 32.744C13.9895 32.238 14.1435 31.8475 14.4075 31.6055C14.633 31.4075 14.9355 31.303 15.2985 31.303C15.667 31.303 15.9695 31.4075 16.1895 31.6055C16.459 31.8475 16.6075 32.238 16.6075 32.744C16.6075 33.2555 16.459 33.646 16.1895 33.888C15.9695 34.086 15.667 34.1905 15.2985 34.1905C14.9355 34.1905 14.633 34.086 14.4075 33.888C14.1435 33.646 13.9895 33.2555 13.9895 32.744ZM14.5725 32.744C14.5725 33.0795 14.655 33.327 14.809 33.4865C14.93 33.6075 15.095 33.6735 15.2985 33.6735C15.502 33.6735 15.667 33.6075 15.7935 33.4865C15.942 33.327 16.0245 33.0795 16.0245 32.744C16.0245 32.414 15.942 32.161 15.7935 32.007C15.667 31.886 15.502 31.82 15.2985 31.82C15.095 31.82 14.93 31.886 14.809 32.007C14.655 32.161 14.5725 32.414 14.5725 32.744ZM18.087 34.8285H17.4875V31.336H18.087V34.8285ZM18.175 36.3465H14.358V34.6525H14.9575V35.8295H18.175V36.3465Z" fill="#665AA6"/>
<defs>
<filter id="filter0_d_43_343" x="1.375" y="2.41632" width="24.25" height="25.2095" filterUnits="userSpaceOnUse" color-interpolation-filters="sRGB">
<feFlood flood-opacity="0" result="BackgroundImageFix"/>
<feColorMatrix in="SourceAlpha" type="matrix" values="0 0 0 0 0 0 0 0 0 0 0 0 0 0 0 0 0 0 127 0" result="hardAlpha"/>
<feOffset dy="2"/>
<feGaussianBlur stdDeviation="1"/>
<feComposite in2="hardAlpha" operator="out"/>
<feColorMatrix type="matrix" values="0 0 0 0 0 0 0 0 0 0 0 0 0 0 0 0 0 0 0.25 0"/>
<feBlend mode="normal" in2="BackgroundImageFix" result="effect1_dropShadow_43_343"/>
<feBlend mode="normal" in="SourceGraphic" in2="effect1_dropShadow_43_343" result="shape"/>
</filter>
<linearGradient id="paint0_linear_43_343" x1="13.5" y1="2.41632" x2="13.5" y2="23.6259" gradientUnits="userSpaceOnUse">
<stop stop-color="#D4A6B4"/>
<stop offset="0.51875" stop-color="#9C8CCA"/>
<stop offset="1" stop-color="#665AA6"/>
</linearGradient>
<clipPath id="clip0_43_343">
<rect width="27" height="27" fill="white"/>
</clipPath>
</defs>
</svg>
