<svg width="27" height="36" viewBox="0 0 27 36" fill="none" xmlns="http://www.w3.org/2000/svg">
<g clip-path="url(#clip0_43_352)">
<g filter="url(#filter0_d_43_352)">
<path d="M5.0625 23.625C5.0625 23.625 3.375 23.625 3.375 21.9375C3.375 20.25 5.0625 15.1875 13.5 15.1875C21.9375 15.1875 23.625 20.25 23.625 21.9375C23.625 23.625 21.9375 23.625 21.9375 23.625H5.0625ZM13.5 13.5C14.8427 13.5 16.1303 12.9666 17.0797 12.0172C18.0291 11.0678 18.5625 9.78016 18.5625 8.4375C18.5625 7.09484 18.0291 5.80717 17.0797 4.85777C16.1303 3.90837 14.8427 3.375 13.5 3.375C12.1573 3.375 10.8697 3.90837 9.92027 4.85777C8.97087 5.80717 8.4375 7.09484 8.4375 8.4375C8.4375 9.78016 8.97087 11.0678 9.92027 12.0172C10.8697 12.9666 12.1573 13.5 13.5 13.5Z" fill="url(#paint0_linear_43_352)"/>
</g>
</g>
<path d="M3.27604 30.424V34.989H0.856037V30.424H3.27604ZM1.45004 34.472H2.68204V30.952H1.45004V34.472ZM4.75554 30.336V32.371H5.53654V32.8935H4.75554V35.3245H4.15604V30.336H4.75554ZM8.09932 32.6955C8.09932 31.9035 8.04432 31.326 7.83532 31.062C7.73632 30.9245 7.58232 30.853 7.40082 30.853C7.22482 30.853 7.07082 30.9245 6.96632 31.062C6.76832 31.326 6.70782 31.9035 6.70782 32.6955C6.70782 33.4875 6.76832 34.065 6.96632 34.3345C7.07082 34.461 7.22482 34.5325 7.40082 34.5325C7.58232 34.5325 7.73632 34.461 7.83532 34.3345C8.04432 34.065 8.09932 33.4875 8.09932 32.6955ZM6.11382 32.6955C6.11382 31.7935 6.20182 31.117 6.52082 30.7265C6.72432 30.4735 7.03232 30.336 7.40082 30.336C7.77482 30.336 8.07732 30.4735 8.28632 30.7265C8.60532 31.117 8.69332 31.7935 8.69332 32.6955C8.69332 33.5975 8.60532 34.274 8.28632 34.6645C8.07732 34.9175 7.77482 35.044 7.40082 35.044C7.03232 35.044 6.72432 34.9175 6.52082 34.6645C6.20182 34.274 6.11382 33.5975 6.11382 32.6955ZM10.1563 30.336V35.3245H9.55682V30.336H10.1563ZM11.3056 34.989V34.494H11.6961V30.93H11.3661V30.424H13.5881V30.93H13.2966V33.042C13.2966 33.57 13.2746 34.098 13.2031 34.4885C13.3956 34.483 13.5991 34.4555 13.7531 34.406V34.8735C13.5606 34.956 13.2801 34.989 13.0161 34.989H11.3056ZM12.2516 34.494H12.6641C12.7191 34.1695 12.7356 33.7625 12.7356 33.3555V30.93H12.2516V34.494ZM13.4671 32.822V32.2995H13.9456V30.369H14.5121V35.264H13.9456V32.822H13.4671ZM15.5131 35.3245H14.9411V30.336H15.5131V35.3245ZM18.6589 32.6955C18.6589 31.9035 18.6039 31.326 18.3949 31.062C18.2959 30.9245 18.1419 30.853 17.9604 30.853C17.7844 30.853 17.6304 30.9245 17.5259 31.062C17.3279 31.326 17.2674 31.9035 17.2674 32.6955C17.2674 33.4875 17.3279 34.065 17.5259 34.3345C17.6304 34.461 17.7844 34.5325 17.9604 34.5325C18.1419 34.5325 18.2959 34.461 18.3949 34.3345C18.6039 34.065 18.6589 33.4875 18.6589 32.6955ZM16.6734 32.6955C16.6734 31.7935 16.7614 31.117 17.0804 30.7265C17.2839 30.4735 17.5919 30.336 17.9604 30.336C18.3344 30.336 18.6369 30.4735 18.8459 30.7265C19.1649 31.117 19.2529 31.7935 19.2529 32.6955C19.2529 33.5975 19.1649 34.274 18.8459 34.6645C18.6369 34.9175 18.3344 35.044 17.9604 35.044C17.5919 35.044 17.2839 34.9175 17.0804 34.6645C16.7614 34.274 16.6734 33.5975 16.6734 32.6955ZM20.7159 30.336V35.3245H20.1164V30.336H20.7159ZM21.9532 30.952V30.424H24.6592V30.952H23.6032V32.294C23.6032 33.625 24.1257 34.164 24.7032 34.439V34.989C24.0817 34.7745 23.5427 34.2905 23.3007 33.7625C23.0587 34.2905 22.5142 34.78 21.8982 34.989V34.439C22.4647 34.1695 22.9982 33.625 22.9982 32.294V30.952H21.9532ZM25.9957 30.336V35.3245H25.3962V30.336H25.9957Z" fill="#665AA6"/>
<defs>
<filter id="filter0_d_43_352" x="1.375" y="3.375" width="24.25" height="24.25" filterUnits="userSpaceOnUse" color-interpolation-filters="sRGB">
<feFlood flood-opacity="0" result="BackgroundImageFix"/>
<feColorMatrix in="SourceAlpha" type="matrix" values="0 0 0 0 0 0 0 0 0 0 0 0 0 0 0 0 0 0 127 0" result="hardAlpha"/>
<feOffset dy="2"/>
<feGaussianBlur stdDeviation="1"/>
<feComposite in2="hardAlpha" operator="out"/>
<feColorMatrix type="matrix" values="0 0 0 0 0 0 0 0 0 0 0 0 0 0 0 0 0 0 0.25 0"/>
<feBlend mode="normal" in2="BackgroundImageFix" result="effect1_dropShadow_43_352"/>
<feBlend mode="normal" in="SourceGraphic" in2="effect1_dropShadow_43_352" result="shape"/>
</filter>
<linearGradient id="paint0_linear_43_352" x1="13.5" y1="3.375" x2="13.5" y2="23.625" gradientUnits="userSpaceOnUse">
<stop stop-color="#D4A6B4"/>
<stop offset="0.536458" stop-color="#9C8CCA"/>
<stop offset="1" stop-color="#665AA6"/>
</linearGradient>
<clipPath id="clip0_43_352">
<rect width="27" height="27" fill="white"/>
</clipPath>
</defs>
</svg>
